<svg width="1600" height="720" viewBox="0 0 1600 720" fill="none" xmlns="http://www.w3.org/2000/svg">
  <defs>
    <linearGradient id="bg" x1="132" y1="92" x2="1458" y2="645" gradientUnits="userSpaceOnUse">
      <stop stop-color="#0A0910"/>
      <stop offset="0.48" stop-color="#13101C"/>
      <stop offset="1" stop-color="#08070D"/>
    </linearGradient>
    <radialGradient id="glowLeft" cx="0" cy="0" r="1" gradientUnits="userSpaceOnUse" gradientTransform="translate(342 208) rotate(46.3) scale(428 301)">
      <stop stop-color="#7A6A8E" stop-opacity="0.72"/>
      <stop offset="1" stop-color="#7A6A8E" stop-opacity="0"/>
    </radialGradient>
    <radialGradient id="glowRight" cx="0" cy="0" r="1" gradientUnits="userSpaceOnUse" gradientTransform="translate(1260 214) rotate(136.5) scale(362 251)">
      <stop stop-color="#A99CBC" stop-opacity="0.36"/>
      <stop offset="1" stop-color="#A99CBC" stop-opacity="0"/>
    </radialGradient>
    <linearGradient id="frame" x1="246" y1="128" x2="1382" y2="596" gradientUnits="userSpaceOnUse">
      <stop stop-color="#5E526E" stop-opacity="0.75"/>
      <stop offset="1" stop-color="#B4A6CA" stop-opacity="0.22"/>
    </linearGradient>
    <linearGradient id="accent" x1="274" y1="176" x2="564" y2="414" gradientUnits="userSpaceOnUse">
      <stop stop-color="#AA9AC3"/>
      <stop offset="1" stop-color="#5A4B70"/>
    </linearGradient>
    <filter id="blur" x="0" y="0" width="1600" height="720" filterUnits="userSpaceOnUse" color-interpolation-filters="sRGB">
      <feGaussianBlur stdDeviation="70"/>
    </filter>
  </defs>

  <rect width="1600" height="720" rx="42" fill="url(#bg)"/>
  <g filter="url(#blur)">
    <ellipse cx="322" cy="202" rx="196" ry="128" fill="url(#glowLeft)"/>
    <ellipse cx="1284" cy="192" rx="176" ry="112" fill="url(#glowRight)"/>
  </g>

  <rect x="42" y="42" width="1516" height="636" rx="34" stroke="url(#frame)" stroke-width="2"/>
  <rect x="76" y="76" width="1448" height="568" rx="28" fill="#FFFFFF" fill-opacity="0.01" stroke="#FFFFFF" stroke-opacity="0.05"/>

  <g opacity="0.42">
    <path d="M1058 128C1170 184 1269 307 1298 420" stroke="#9A8BB1" stroke-width="3" stroke-linecap="round"/>
    <path d="M1118 116C1226 190 1306 275 1366 412" stroke="#6C5D81" stroke-width="3" stroke-linecap="round"/>
    <path d="M1006 170C1114 214 1222 350 1240 464" stroke="#473A58" stroke-width="2.5" stroke-linecap="round"/>
  </g>

  <g>
    <rect x="166" y="140" width="302" height="302" rx="42" fill="#FFFFFF" fill-opacity="0.03" stroke="#B4A6CA" stroke-opacity="0.22"/>
    <circle cx="318" cy="292" r="112" fill="#0F0C15" stroke="url(#accent)" stroke-width="12"/>
    <circle cx="318" cy="292" r="52" fill="#1B1624" stroke="#C9BED9" stroke-opacity="0.78" stroke-width="5"/>
    <circle cx="278" cy="238" r="18" fill="#C7BDD7"/>
    <circle cx="362" cy="226" r="14" fill="#998BAC"/>
    <circle cx="394" cy="310" r="16" fill="#6B5E7D"/>
    <circle cx="300" cy="368" r="14" fill="#C7BDD7"/>
    <circle cx="230" cy="316" r="12" fill="#8F82A2"/>
    <path d="M456 374L566 474" stroke="#A99CBC" stroke-width="18" stroke-linecap="round"/>
    <path d="M518 432L640 548" stroke="#6D5F81" stroke-width="10" stroke-linecap="round"/>
    <rect x="616" y="520" width="120" height="14" rx="7" fill="#A99CBC"/>
  </g>

  <g>
    <text x="596" y="238" fill="#A99CBC" font-family="Avenir Next, Segoe UI, sans-serif" font-size="28" font-weight="700" letter-spacing="7.6">MOVIE DISCOVERY PLATFORM</text>
    <text x="592" y="336" fill="#F8F4FF" font-family="Georgia, Times New Roman, serif" font-size="112" font-weight="700">ScreenLot</text>
    <text x="598" y="404" fill="#D2C8E2" font-family="Avenir Next, Segoe UI, sans-serif" font-size="32" font-weight="500">
      Explainable recommendations, live model insight, and cinematic exploration.
    </text>
    <text x="598" y="468" fill="#B9AFC9" font-family="Avenir Next, Segoe UI, sans-serif" font-size="24" font-weight="500">
      Hybrid ranking • Feedback-aware product layer • Story-led analytics
    </text>
  </g>

  <g opacity="0.85">
    <rect x="598" y="522" width="196" height="58" rx="29" fill="#A99CBC" fill-opacity="0.16" stroke="#A99CBC" stroke-opacity="0.32"/>
    <text x="634" y="559" fill="#F3EEFB" font-family="Avenir Next, Segoe UI, sans-serif" font-size="25" font-weight="700">Purple Ash UI</text>
    <rect x="816" y="522" width="174" height="58" rx="29" fill="#665B7B" fill-opacity="0.18" stroke="#A99CBC" stroke-opacity="0.22"/>
    <text x="857" y="559" fill="#E8DFF5" font-family="Avenir Next, Segoe UI, sans-serif" font-size="25" font-weight="700">Black Glass</text>
    <rect x="1012" y="522" width="214" height="58" rx="29" fill="#FFFFFF" fill-opacity="0.03" stroke="#A99CBC" stroke-opacity="0.18"/>
    <text x="1061" y="559" fill="#EDE6FA" font-family="Avenir Next, Segoe UI, sans-serif" font-size="25" font-weight="700">Streaming Feel</text>
  </g>

  <g opacity="0.18">
    <rect x="1324" y="86" width="118" height="16" rx="8" fill="#B4A6CA"/>
    <rect x="1324" y="120" width="154" height="16" rx="8" fill="#7C6C91"/>
    <rect x="1324" y="154" width="92" height="16" rx="8" fill="#52465F"/>
  </g>
</svg>
